<svg width="40" height="40" viewBox="0 0 40 40" fill="none" xmlns="http://www.w3.org/2000/svg">
<circle cx="20" cy="20" r="20" fill="url(#paint0_linear_581_5590)"/>
<path d="M29.2642 13.7932H20.5923C20.2798 13.7932 20.1235 14.1814 20.3579 14.4144L23.0923 17.1319L20.7485 19.4612L18.2485 16.9766C17.3892 16.1225 15.7485 16.1225 14.8892 16.9766L10.3579 21.4799C9.42041 22.4116 9.42041 23.8868 10.3579 24.8186C10.8267 25.2844 11.4517 25.5174 11.9985 25.5174C12.5454 25.5174 13.2485 25.2844 13.6392 24.8186L16.5298 21.9458L19.0298 24.4303C19.9673 25.3621 21.4517 25.3621 22.3892 24.4303L26.4517 20.3929L29.0298 22.9551C29.2642 23.1881 29.6548 23.0328 29.6548 22.7222V14.1814C29.6548 13.9485 29.4985 13.7932 29.2642 13.7932Z" fill="white"/>
<defs>
<linearGradient id="paint0_linear_581_5590" x1="0.572916" y1="-12.362" x2="37.9593" y2="10.0756" gradientUnits="userSpaceOnUse">
<stop stop-color="#CE5BEB"/>
<stop offset="1" stop-color="#5B61EB"/>
</linearGradient>
</defs>
</svg>
